<svg xmlns="http://www.w3.org/2000/svg" viewBox="0 0 29.95 42.84"><defs><style>.cls-1{fill:#040000;}</style></defs><g id="レイヤー_2" data-name="レイヤー 2"><g id="レイヤー_1-2" data-name="レイヤー 1"><path class="cls-1" d="M27.81,17.17H8.56V11a6.69,6.69,0,0,1,5.13-6.63,6.55,6.55,0,0,1,7.7,6.42,2.14,2.14,0,0,0,4.28,0A10.75,10.75,0,0,0,13.91.05,11.12,11.12,0,0,0,4.28,11.18v6H2.14A2.14,2.14,0,0,0,0,19.31V40.7a2.3,2.3,0,0,0,2.14,2.14H27.81A2.15,2.15,0,0,0,30,40.7V19.31A2,2,0,0,0,27.81,17.17ZM17.11,31.5v2.78A2,2,0,0,1,15,36.42a2,2,0,0,1-2.13-2.14V31.5a4.39,4.39,0,0,1-2.14-3.63A4.23,4.23,0,0,1,16,23.8,4.8,4.8,0,0,1,19.25,27,4.16,4.16,0,0,1,17.11,31.5Z"/></g></g></svg>