<svg xmlns="http://www.w3.org/2000/svg" viewBox="0 0 101.13 9.55"><defs><style>.cls-1{fill:#231815;}</style></defs><g id="レイヤー_2" data-name="レイヤー 2"><g id="レイヤー_1-2" data-name="レイヤー 1"><path class="cls-1" d="M4.28,2.24V9.3H1.93V2.24H0v-2H6.22v2Z"/><path class="cls-1" d="M14.8,9.3H11.87L9.62,5.82V9.3H7.27v-9h3.66a3.72,3.72,0,0,1,1.32.22,2.47,2.47,0,0,1,.93.61,2.58,2.58,0,0,1,.56.89,3.14,3.14,0,0,1,.18,1.08,2.66,2.66,0,0,1-.5,1.67A2.48,2.48,0,0,1,12,5.59Zm-5.18-5h.45A1.75,1.75,0,0,0,11.14,4a1,1,0,0,0,.37-.83,1,1,0,0,0-.37-.83,1.75,1.75,0,0,0-1.07-.29H9.62Z"/><path class="cls-1" d="M21.81,7.73H18.45L17.91,9.3H15.4l3.44-9h2.57L24.85,9.3h-2.5Zm-.63-1.79-1.05-3-1.06,3Z"/><path class="cls-1" d="M26.74.25l2.19,5.51L31.12.25h2.56L29.86,9.3H28l-3.8-9Z"/><path class="cls-1" d="M39.81,2.24H37V3.76h2.64v2H37V7.31h2.8v2H34.66v-9h5.15Z"/><path class="cls-1" d="M44,.25V7.31h2.82v2H41.66v-9Z"/><path class="cls-1" d="M51.71,4.78a4.68,4.68,0,0,1,.38-1.88,4.55,4.55,0,0,1,1-1.52,4.61,4.61,0,0,1,1.58-1,5.67,5.67,0,0,1,4,0,4.65,4.65,0,0,1,1.59,1,4.57,4.57,0,0,1,1,1.52,4.67,4.67,0,0,1,.37,1.88,4.66,4.66,0,0,1-.37,1.87,4.57,4.57,0,0,1-1,1.52,4.83,4.83,0,0,1-1.59,1,5.82,5.82,0,0,1-4,0,4.78,4.78,0,0,1-1.58-1,4.55,4.55,0,0,1-1-1.52A4.66,4.66,0,0,1,51.71,4.78Zm2.46,0a2.31,2.31,0,0,0,.21,1,2.34,2.34,0,0,0,.55.79,2.47,2.47,0,0,0,.81.53,2.67,2.67,0,0,0,1,.18,2.7,2.7,0,0,0,1-.18,2.58,2.58,0,0,0,.81-.53,2.36,2.36,0,0,0,.56-.79,2.31,2.31,0,0,0,.2-1,2.35,2.35,0,0,0-.2-1A2.47,2.47,0,0,0,58.51,3a2.39,2.39,0,0,0-.81-.52,2.52,2.52,0,0,0-1-.19,2.48,2.48,0,0,0-1,.19,2.3,2.3,0,0,0-.81.52,2.44,2.44,0,0,0-.55.79A2.36,2.36,0,0,0,54.17,4.78Z"/><path class="cls-1" d="M63.29,9.3v-9h2.35L70,5.78V.25h2.34V9.3H70L65.64,3.77V9.3Z"/><path class="cls-1" d="M76.66.25V7.31h2.82v2H74.31v-9Z"/><path class="cls-1" d="M83,.25V9.3H80.63v-9Z"/><path class="cls-1" d="M85,9.3v-9h2.35l4.34,5.53V.25H94V9.3H91.66L87.32,3.77V9.3Z"/><path class="cls-1" d="M101.13,2.24H98.34V3.76H101v2H98.34V7.31h2.79v2H96v-9h5.14Z"/></g></g></svg>